<svg width="255" height="90" viewBox="0 0 255 90" fill="none" xmlns="http://www.w3.org/2000/svg">
<path opacity="0.3" d="M227.98 13.9244C228.597 13.9032 229.173 13.9295 229.809 13.5682C229.99 13.4684 230.856 13.0333 230.979 12.2097C231.04 11.8222 230.931 11.4213 231.016 11.0426C231.13 10.5189 231.621 10.1044 232.157 10.0888C232.693 10.0652 233.217 10.4467 233.371 10.9545C233.659 10.558 234.043 10.2374 234.472 10.0076C234.733 9.9671 234.92 9.68095 234.863 9.41957C235.377 9.61419 235.944 9.38056 236.488 9.34092C237.034 9.29317 237.729 9.62334 237.647 10.1724C238.696 10.3271 240.01 10.3604 240.541 9.44416C240.893 8.84678 240.94 7.85044 241.64 7.79944C241.802 8.31564 242.562 8.13675 243.04 7.8922C243.519 7.64765 244.339 7.60048 244.363 8.14476C244.973 7.56365 246.016 7.6695 246.707 8.16175C247.397 8.65401 247.819 9.42986 248.217 10.1806C250.789 15.0723 253.076 20.2309 253.739 25.7196C254.281 26.0206 253.778 26.7997 253.233 27.1071C252.696 27.4147 251.986 27.5708 251.724 28.1386C251.655 28.2824 251.625 28.4437 251.532 28.5625C251.161 29.0294 250.446 28.5283 250.088 28.0546C249.521 28.2801 249.465 29.0409 249.204 29.5925C248.839 30.3598 247.892 30.8086 247.064 30.5879C247.474 31.2011 246.785 31.9501 246.164 32.3686L245.758 32.6479C245.293 32.9659 244.764 33.2899 244.206 33.2156C243.94 33.1748 243.668 33.0445 243.406 33.1174C242.948 33.249 242.896 33.8558 242.72 34.2965C242.35 35.2259 240.977 35.5558 240.219 34.8992C239.998 34.7056 239.836 34.449 239.615 34.2474C238.819 33.5084 237.466 33.6849 236.641 34.389C235.815 35.1013 235.44 36.1928 235.244 37.2656C235.048 38.3384 235.014 39.4325 234.705 40.4774C234.468 41.2974 233.788 41.7871 233.106 42.3011C226.758 47.0742 219.362 50.0864 219.362 50.0864L214.423 52.3647L212.178 52.294L207.837 55.4024L206.976 56.9978L203.888 56.9006L202.062 58.4656L199.605 59.1995L197.123 60.7439C197.123 60.7439 195.876 61.6862 195.39 61.6709L192.975 61.5949L192.209 62.2117L190.143 62.1467L188.942 62.9201L184.864 63.603L183.218 64.3624L179.611 64.2489L178.278 66.6407L176.52 66.5853L174.201 67.3236L169.236 70.4123L164.348 71.0697L161.055 72.5886L157.711 75.7283L155.254 76.4622L151.126 78.766L143.704 82.5887L140.437 83.2971L135.523 84.7649L121.243 84.3154L118.478 85.0396C117.95 84.8039 117.117 84.4694 116.072 84.1526C114.184 83.574 113.846 83.7499 112.045 83.2146C110.092 82.6339 109.885 82.2543 108.829 82.3021C107.765 82.3498 107.744 82.7466 106.372 83.036C104.821 83.3604 103.538 83.1253 102.32 82.9085C100.989 82.6719 100.631 82.4335 99.1038 81.996C97.8335 81.6315 96.6229 81.4312 94.2666 81.0325C89.8604 80.2935 89.6598 80.4818 87.8085 80.0179C86.6494 79.73 84.9701 79.2147 82.9969 78.244C82.0765 78.1014 80.657 77.8377 78.9701 77.306C77.7973 76.9365 77.0049 76.5951 76.5643 76.419C73.32 75.1081 69.9967 74.7601 67.7004 74.5175C65.1209 74.2497 63.1649 74.2774 61.2168 74.3134C56.6876 74.3899 55.8208 74.8656 53.9228 74.0838C52.5535 73.5134 51.9103 72.8117 49.9215 72.3353C48.0454 71.8869 47.0399 72.1311 46.6797 72.2333C45.4764 72.5767 45.2549 73.1701 44.1974 73.7777C43.3959 74.2392 42.5368 74.4717 38.4987 74.4095C33.9984 74.3409 34.3728 74.0444 32.8256 74.231C30.0976 74.5588 29.9507 75.3573 27.1014 75.6733C25.6198 75.8376 24.4955 75.7292 22.2387 75.5202C19.0517 75.2252 17.4584 75.0696 15.7806 74.5057C14.0466 73.9238 12.2358 72.6905 8.61416 70.2238C7.86764 69.7136 7.0614 69.0392 5.44891 67.6904C4.7057 67.0748 4.27195 66.6799 3.87903 66.0185C3.32433 65.0844 3.21461 64.1885 3.14511 63.5617C3.0751 62.951 3.1359 62.8231 3.24716 60.3199C3.29475 59.3235 3.31056 58.8211 3.29818 58.699C3.12803 57.4037 2.52126 57.0926 1.77932 55.4062C1.34013 54.4107 1.07561 53.794 1.0454 52.9493C1.02025 52.2022 1.20595 51.9728 1.9579 49.733C2.71011 47.4852 2.81967 46.8397 2.87039 46.5168C2.98353 45.7577 3.09666 44.9987 2.94693 44.0854C2.66848 42.3649 1.85649 42.388 1.42807 40.7926C1.02902 39.2954 1.72299 39.155 1.58114 35.9299C1.55318 35.2719 1.50818 34.8973 1.63216 34.309C1.85225 33.2451 2.314 33.0081 2.51914 31.9032C2.55871 31.6773 2.56515 31.2151 2.57016 30.2823C2.58449 28.5385 2.49209 28.3815 2.6467 27.8509C2.8918 27.0231 3.22254 27.0821 3.50817 26.2555C3.74032 25.5814 3.63731 25.2455 3.5847 23.8242C3.53541 22.2975 3.50267 21.5339 3.68675 20.5824C3.85284 19.6871 3.99839 18.9292 4.57373 18.1766C4.57373 18.1766 4.78502 17.9074 6.24565 16.6067C6.45214 16.2319 6.7453 15.6814 7.10713 15.0113C7.89157 13.5433 7.85054 13.5582 7.96858 13.4159C8.30654 12.9885 8.74551 12.7021 11.2614 11.8971C12.4496 11.5207 13.0397 11.3284 13.7183 11.1632C14.4705 10.9759 15.9003 10.6559 17.796 10.4803C19.8303 10.2847 22.2306 10.0601 25.09 10.7099C25.8473 10.8797 25.5798 10.8713 28.3063 11.6224C30.9042 12.3369 31.6219 12.4731 32.3331 12.5604C33.7067 12.7334 34.7545 12.6934 35.5749 12.6624C36.8176 12.6123 37.5192 12.4883 40.4631 12.005C44.4342 11.3593 44.3602 11.3895 44.5408 11.3221C46.9384 10.4079 46.8622 9.22105 49.5056 8.2334C50.2198 7.96384 51.3115 7.56013 52.7729 7.525C54.1448 7.49517 54.6133 7.8182 56.0147 7.62704C57.1308 7.47559 57.9697 7.1126 58.4715 6.89313C58.9816 6.66581 59.9609 6.22611 60.9539 5.34877C61.4628 4.90237 61.4165 4.8279 61.7898 4.56383C61.9477 4.44711 63.0343 3.68629 64.2467 3.82991C65.6206 3.99485 65.7706 5.15966 67.4375 5.55285C68.1301 5.71257 68.6597 5.64 69.0584 5.60388C71.4916 5.36408 74.1723 5.76485 77.1629 5.85899C80.8747 5.97583 84.0191 5.56372 95.0437 4.79933C98.6536 4.5479 104.523 4.16477 109.657 4.44808C113.609 4.66172 115.577 4.77234 116.926 5.48813C117.58 5.83323 118.694 6.54161 120.142 6.40062C121.111 6.30131 121.423 5.90552 122.599 5.66671C123.995 5.37805 125.14 5.62499 125.841 5.76875C128.001 6.22613 129.433 7.37452 130.627 8.35316C132.762 10.1078 132.255 10.4812 134.552 12.533C136.706 14.4585 138.914 15.7043 139.312 15.9278C141.082 16.9165 141.362 16.7955 142.503 17.6508C144.389 19.073 144.551 20.1003 145.668 20.1841C146.591 20.2537 146.726 19.5603 148.961 18.6653C149.388 18.4922 150.317 18.1239 151.418 17.9314C151.761 17.8692 153.171 17.6377 155.47 18.0589C158.543 18.6181 159 19.5654 161.903 19.8839C162.897 19.9963 163.685 19.9725 164.334 19.9604C166.64 19.9032 168.372 19.5035 169.222 19.3031C174.985 17.935 179.86 16.3929 179.86 16.3929C185.694 14.5484 185.676 14.3694 187.231 14.1912C189.177 13.9685 189.673 14.1869 195.335 14.4463C197.92 14.5601 196.989 14.4821 202.629 14.6759C211.09 14.9665 210.721 15.0766 212.355 14.982C216.759 14.7394 217.486 14.0889 220.485 14.4267C221.56 14.5498 222.786 14.7749 224.537 14.5542C226.174 14.3462 226.348 13.9866 227.98 13.9244Z" fill="#34D958"/>
<path opacity="0.8" d="M246.915 9.57148C247.459 10.0673 247.762 10.7663 248.04 11.4484C249.751 15.6153 251.305 19.8503 252.703 24.1372C252.866 24.6372 253.028 25.1615 252.971 25.6789C252.969 25.7518 252.942 25.8321 252.884 25.8789C252.759 25.9724 252.601 25.8295 252.516 25.7051C252.113 25.1002 251.851 24.4186 251.596 23.7373C250.368 20.486 249.124 17.2262 247.608 14.0957C247.143 13.1401 246.662 12.192 246.337 11.1839C246.189 10.7249 245.98 10.1343 246.012 9.64853C246.054 9.07387 246.544 9.22721 246.915 9.57148Z" fill="#5AA285"/>
<path opacity="0.8" d="M243.992 9.63381C244.208 10.0138 244.25 10.4613 244.31 10.8931C244.552 12.718 245.048 14.5021 245.774 16.188C246.553 17.9811 247.587 19.6605 248.21 21.5135C248.484 22.3496 248.684 23.2158 249.098 23.9914C249.588 24.8992 250.368 25.6377 250.859 26.5455C250.928 26.6694 250.988 26.8092 250.968 26.9546C250.936 27.1807 250.712 27.3359 250.491 27.3939C249.525 27.6717 248.619 26.8157 248.094 25.9636C246.419 23.25 246.193 19.8924 244.938 16.9567C244.167 15.1558 243.01 13.5131 242.404 11.6363C242.22 11.0626 241.822 10.0198 242.214 9.44802C242.672 8.78912 243.623 8.99752 243.984 9.63356L243.992 9.63381Z" fill="#B4E7D1"/>
<path opacity="0.5" d="M240.959 12.1513C243.04 17.417 244.274 23.0616 247.105 27.9695C247.236 28.2008 247.374 28.4404 247.398 28.7007C247.452 29.319 246.795 29.8337 246.172 29.7817C245.549 29.7296 245.036 29.2592 244.745 28.7065C244.455 28.1538 244.352 27.534 244.226 26.9216C243.499 23.459 241.896 20.269 240.686 16.9616C240.155 15.5252 239.579 13.9738 239.278 12.4716C239.186 12.0225 239.017 10.9707 239.525 10.7839C240.174 10.5447 240.786 11.7159 240.959 12.1351L240.959 12.1513Z" fill="#5AA285"/>
<path opacity="0.5" d="M236.089 10.7149C236.753 10.744 237.27 11.3443 237.493 11.976C237.717 12.6077 237.736 13.2898 237.902 13.9359C238.12 14.7459 238.568 15.4739 238.966 16.2166C239.533 17.2728 239.993 18.3825 240.453 19.4921C241.147 21.1527 241.833 22.813 242.528 24.4655C242.95 25.4766 243.372 26.4959 243.484 27.5784C243.528 28.0016 243.53 28.4478 243.671 28.8498C243.968 29.7272 244.91 30.4708 244.663 31.3635C244.462 32.0873 243.455 32.3638 242.802 31.9944C242.061 31.5736 241.806 30.6407 241.605 29.8151C240.482 25.2692 238.812 20.8683 236.647 16.7195C236.241 15.9361 233.464 10.5999 236.089 10.7149Z" fill="#76BDA1"/>
<path opacity="0.8" d="M237.142 20.8646C237.823 22.6789 238.471 24.5165 239.062 26.3604C239.394 27.3849 239.711 28.4171 239.847 29.4922C239.933 30.1277 239.936 30.8011 239.642 31.376C239.348 31.9508 238.654 32.3427 238.053 32.1291C237.947 31.1117 238.343 30.1101 238.392 29.0894C238.539 26.2141 236.067 23.8324 235.661 20.9883C235.521 20.0266 235.618 19.0237 235.289 18.1129C234.856 16.9311 233.786 16.1267 233.031 15.1213C232.369 14.2405 231.544 12.6083 231.767 11.4552C232.085 9.87517 233.162 11.4586 233.473 12.1579C234.753 15.0376 236.026 17.917 237.142 20.8646Z" fill="#82C1A8"/>
<path opacity="0.8" d="M232.741 20.4419C232.612 19.9106 232.317 19.2441 231.779 19.3084C231.648 20.1074 231.688 20.928 231.89 21.7131C232.049 22.3185 232.299 22.8942 232.401 23.5059C232.532 24.2644 232.434 25.0483 232.45 25.8195C232.473 26.8992 232.716 27.9533 232.975 28.9999C233.277 30.2263 233.938 32.6808 235.557 32.8048C236.811 32.9011 236.447 31.5754 236.214 30.7406C235.245 27.246 233.603 23.9899 232.741 20.4338L232.741 20.4419Z" fill="#4D9577"/>
<path opacity="0.5" d="M231.597 16.5858C231.425 16.3614 231.214 16.1195 230.93 16.1267C230.548 16.1391 230.356 16.5792 230.279 16.9581C230.017 18.3208 230.249 19.7154 230.474 21.0853C230.753 22.7815 231.032 24.4777 231.319 26.1742C231.578 27.7399 231.837 29.3138 232.399 30.7998C232.765 31.7849 233.271 32.7337 233.384 33.7838C233.038 33.9352 232.727 33.5197 232.576 33.1742C232.023 31.9156 231.47 30.657 231.049 29.3539C230.739 28.3868 230.502 27.3978 230.29 26.4095C229.567 23.0768 229.065 19.7024 228.799 16.303C228.775 16.0427 228.759 15.7663 228.832 15.5172C229.031 14.842 229.853 14.519 230.538 14.6623C231.223 14.8055 231.775 15.3096 232.237 15.8353C233.826 17.67 234.628 20.0155 235.27 22.3234C235.845 24.4021 236.534 26.5006 237.003 28.6002C235.862 26.6985 235.192 24.5194 234.447 22.4435C233.701 20.3676 232.72 18.5276 231.604 16.6023L231.597 16.5858Z" fill="#5B8C78"/>
<path opacity="0.5" d="M225.484 20.555C225.388 21.0387 225.29 21.5548 224.954 21.9174C224.619 22.28 224.055 22.4083 223.598 22.2317C223.462 22.1787 223.327 22.0852 223.323 21.9391C223.328 21.7932 223.469 21.6922 223.593 21.615C224.231 21.197 224.618 20.479 224.828 19.7474C225.038 19.0158 225.086 18.2466 225.191 17.4954C225.276 16.8653 225.427 16.1967 225.879 15.7405C226.105 15.5123 226.808 15.1045 227.089 15.4297C227.371 15.755 226.764 16.4984 226.642 16.7542C226.069 17.953 225.736 19.2487 225.484 20.555Z" fill="#82C1A8"/>
<path opacity="0.5" d="M226.885 21.9133C226.266 22.7618 226.358 23.9492 226.7 24.9415C227.042 25.9339 227.597 26.86 227.841 27.8817C228.027 28.6745 228.04 29.5511 228.539 30.1914C228.925 28.7433 228.918 27.6885 228.467 26.3033C228.304 25.8033 226.715 22.1432 226.885 21.9133Z" fill="#82C1A8"/>
<path opacity="0.5" d="M228.244 32.0789C228.422 31.5816 229.16 31.0694 229.491 30.6255C230.143 29.7536 230.687 30.5171 231.165 31.2866C231.466 31.7747 231.444 32.2364 231.607 32.7364C231.724 33.1214 231.989 33.4624 232.165 33.8248C232.508 34.5252 232.906 35.2679 232.767 36.0748C232.668 36.6314 231.891 37.8806 231.189 37.7693C231.16 36.3649 231.244 34.9641 230.945 33.6404C230.789 32.9378 230.354 32.843 229.853 32.5109C229.353 32.1787 229.008 32.0462 228.37 32.2127C227.765 32.3721 227.272 32.8271 226.704 33.0851C225.61 33.5698 224.589 33.7811 223.639 34.5706C223.248 34.899 222.836 35.0888 222.358 35.309C221.708 35.605 221.273 36.0455 220.685 36.4164C219.136 37.4142 217.566 38.3464 215.917 39.1788C213.832 40.2245 211.875 42.5805 209.431 42.6496C210.758 41.7341 212.185 40.9921 213.566 40.1432C214.576 39.5259 215.418 38.798 216.517 38.4026C217.863 37.9177 219.298 37.1759 220.373 36.2768C220.906 35.8312 221.541 35.4942 222.129 35.1396C223.138 34.5223 223.973 34.2647 225.119 33.96C226.01 33.7285 226.545 33.2423 227.276 32.6894C227.542 32.4868 227.999 31.8927 228.244 32.0871L228.244 32.0789Z" fill="#82C1A8"/>
<path opacity="0.8" d="M245.667 8.50208C245.26 9.30864 245.483 11.2545 246.068 11.9788C245.279 11.7998 244.658 9.60609 244.697 8.8772C244.766 7.46779 246.087 7.25788 246.791 8.34278C247.921 10.082 248.829 11.9115 249.752 13.774C250.675 15.6365 251.329 17.7988 251.99 19.7179C252.392 20.8825 252.918 22.2052 253.116 23.3797C253.246 24.1625 253.592 26.81 252.313 26.4615C251.622 26.2693 251.378 25.2557 251.063 24.7023C250.639 23.9669 250.207 23.2638 249.981 22.4616C249.799 21.8069 249.709 21.0415 249.429 20.4161C249.186 19.8893 248.834 19.4807 248.633 18.8983C248.016 17.0942 247.435 15.4534 246.498 13.8014C246.336 13.5124 246.134 13.2383 245.989 12.9498C247.778 14.6205 248.426 17.4803 249.443 19.7027C249.967 20.8468 250.167 21.9726 250.592 23.1461C250.861 23.8847 251.321 25.2539 252.006 25.6487C253.201 26.3434 252.948 24.0721 252.97 23.3832C253.009 22.127 252.469 21.5096 251.96 20.4309C250.994 18.3886 250.489 16.1093 249.417 14.0961C248.735 12.8091 248.351 11.3773 247.692 10.1234C247.34 9.44715 246.34 7.97974 245.402 8.13681C245.358 8.249 245.305 8.37714 245.675 8.50234L245.667 8.50208Z" fill="#576D64"/>
<path opacity="0.8" d="M224.801 14.9102C223.395 14.9957 222.612 15.6363 221.304 15.9602C220.159 16.2486 218.783 16.1485 217.606 16.1764C215.04 16.2335 213.073 16.6097 211.577 18.7935C214.125 19.0117 217.262 19.6053 219.68 18.8458C221.318 18.3295 224.456 16.5867 224.801 14.9102Z" fill="#76B098"/>
<path opacity="0.5" d="M203.044 24.505C205.962 24.5725 208.513 23.4522 211.155 22.4888C212.599 21.9664 213.349 21.6087 214.912 21.447C216.067 21.3292 217.713 20.586 218.785 21.0821C216.977 21.5607 215.962 22.0966 214.524 23.179C213.61 23.8722 212.778 25.0467 211.806 25.5109C210.686 26.0517 209.132 25.6783 207.902 25.8261C206.909 25.949 205.509 26.6188 204.624 26.3638C205.471 26.0173 206.724 25.6349 207.168 24.9431C205.606 24.8047 204.279 24.698 203.028 24.4883L203.044 24.505Z" fill="#4D7A68"/>
<path opacity="0.5" d="M216.894 24.6404C217.443 24.7226 217.996 24.6751 218.512 24.5129C218.488 24.2606 218.62 23.9241 218.587 23.6715C219.069 23.3216 219.611 22.8601 220.209 22.668C220.057 23.6367 220.176 24.476 219.448 25.1995C218.954 25.6869 217.938 25.9956 217.32 26.3169C215.455 27.3047 213.412 28.0354 211.523 29.0387C209.336 30.203 206.826 29.8076 204.522 31.0817C203.012 31.9103 201.485 32.4869 199.794 32.8555C197.817 33.2882 195.307 33.1199 193.546 34.1597C195.439 32.7834 197.322 33.013 199.295 32.2071C200.741 31.6198 202.418 30.4152 203.669 29.5865C205.019 28.688 206.279 28.0948 208.078 27.9243C209.331 27.8096 209.874 28.0539 211.054 27.4258C211.764 27.0506 212.285 26.7182 212.968 26.4152C214.137 25.8922 216.509 25.5126 216.902 24.6326L216.894 24.6404Z" fill="#B4E7D1"/>
<path opacity="0.8" d="M206.762 19.7058C200.536 19.0474 194.621 22.7065 189.055 24.7704C187.168 25.4654 185.509 26.622 183.659 27.3912C181.81 28.1605 179.34 28.2531 177.44 29.0938C176.124 29.677 175.788 30.0396 174.174 30.0051C172.431 29.9664 172.012 30.6752 170.893 28.8472C170.052 27.4659 169.905 26.2119 168.195 25.6551C166.797 25.1974 165.563 25.7589 164.281 26.2702C166.36 26.7169 168.072 27.4928 169.693 29.0771C170.866 30.2254 171.772 31.341 173.29 32.0622C174.961 32.8611 177.723 32.9967 179.528 32.5992C181.334 32.2018 182.779 30.6248 184.539 29.8446C186.069 29.1707 187.896 28.8794 189.18 27.7516C189.831 27.1799 190.08 26.4901 190.848 26.068C191.492 25.7151 192.263 25.4392 192.907 25.0701C196.212 23.1866 199.133 21.3559 202.841 21.067C204.98 20.899 206.084 20.9013 208.054 20.1521C209.614 19.5603 211.442 19.488 212.855 18.3887C210.479 18.3626 208.321 19.9333 206.754 19.6974L206.762 19.7058Z" fill="#6FA68F"/>
<path opacity="0.5" d="M196.025 15.4891C194.145 15.4299 192.231 15.1587 190.498 15.8343C189.085 16.3901 187.739 17.6701 186.267 18.0213C183.954 18.5731 181.685 18.7613 179.355 19.5804C177.96 20.0719 176.69 20.9892 175.276 21.3503C173.861 21.7114 172.06 21.4437 170.512 21.3869C168.965 21.3301 166.15 22.3448 164.98 21.375C165.723 20.1978 169.868 20.7095 171.259 20.3396C173.632 19.7004 176.023 18.9968 178.365 18.3161C180.321 17.753 182.198 16.8791 184.227 16.5942C185.987 16.3494 187.491 15.4881 189.258 15.2761C191.294 15.0238 193.822 14.3489 196.033 15.4893L196.025 15.4891Z" fill="#73AB94"/>
<path opacity="0.8" d="M160.965 21.3942C157.238 24.0595 164.215 27.654 165.027 29.9591C162.192 27.2576 159.484 24.3655 156.501 21.9595C155.053 20.7944 153.49 20.9805 154.299 23.3829C154.892 25.1458 156.122 26.7908 156.729 28.6352C156.951 29.3074 157.688 30.661 157.658 31.3497C157.621 32.2652 156.751 32.5867 156.849 33.5876C156.714 32.4719 156.132 31.0988 155.179 30.4604C154.949 31.5889 155.413 32.8204 155.319 34.01C155.262 34.0082 154.978 33.9992 154.93 34.0058C153.21 30.658 154.655 26.4931 153.606 22.9474C153.174 21.4735 152.844 20.6356 151.225 20.5036C149.712 20.3748 149.58 21.2144 148.392 21.8584C146.89 22.6629 146.319 21.7283 144.907 21.4891C147.368 21.1528 149.102 18.368 151.664 18.4162C152.751 18.4342 153.275 19.3025 154.691 19.412C156.107 19.5215 157.665 19.2785 158.896 19.5768C159.379 19.6975 159.884 20.1758 160.398 20.338C161.161 20.5729 161.799 20.1549 162.301 20.9658C161.678 20.9137 161.067 21.2271 160.964 21.4023L160.965 21.3942Z" fill="#6B9F8A"/>
<path opacity="0.5" d="M125.145 8.7883C125.002 8.43496 125.038 8.07103 124.79 7.72248C127.494 7.38574 130.636 11.1596 132.463 12.9208C133.833 14.2456 135.24 15.6772 136.67 16.8985C137.91 17.9678 139.184 18.4541 140.222 19.7686C141.345 21.1993 142.516 22.6639 143.16 24.3473C141.835 22.6506 140.969 21.0414 139.046 20.0074C137.474 19.1629 135.922 18.2217 134.573 17.011C133.35 15.9179 132.45 14.5997 131.27 13.443C130.089 12.2863 128.724 11.862 127.393 11.09C126.485 10.5665 125.093 9.41133 125.154 8.78046L125.145 8.7883Z" fill="#80BEA5"/>
<path opacity="0.5" d="M129.068 16.9605C127.995 17.2918 125.474 17.7397 126.515 19.7195C127.097 20.8249 128.92 20.6227 129.485 22.0196C127.801 21.1391 126.963 19.4172 125.456 18.299C124.045 17.2567 122.764 16.7296 121.998 15.0262C121.376 13.6437 121.796 12.1642 121.516 10.7601C121.235 9.3559 120.322 8.22384 119.865 7.00881C121.748 7.76575 123.596 12.4481 124.528 14.2865C125.002 15.21 125.362 16.6735 126.696 16.5613C127.761 16.4732 128.139 15.041 129.526 15.8229C129.155 16.2737 128.621 16.7436 129.06 16.9683L129.068 16.9605Z" fill="#59A887"/>
<path opacity="0.5" d="M65.3298 6.01342C64.2153 6.36774 64.1707 7.78602 63.2818 8.44761C62.5343 9.00006 61.0104 8.96021 60.0971 9.10993C58.0504 9.44302 55.7908 9.32322 53.902 9.79108C58.7046 10.5669 60.9739 5.99799 65.3379 6.01367L65.3298 6.01342Z" fill="#81A395"/>
<path opacity="0.5" d="M61.4663 5.59183C60.0105 6.47895 59.0914 7.84537 57.362 8.14788C55.4449 8.48505 53.723 8.55254 52.2315 7.22381C53.5926 8.05357 55.036 7.04438 56.3637 6.61564C57.6914 6.18691 59.9884 5.63455 61.4746 5.58398L61.4663 5.59183Z" fill="#81A395"/>
<path opacity="0.8" d="M11.6136 15.6888C11.8982 18.2451 7.66724 18.8988 7.70589 21.5366C7.72385 22.7703 8.39909 23.7407 8.25342 25.0179C8.09582 26.4164 7.55008 27.2591 7.03793 28.5816C6.08458 31.034 6.87887 33.1196 9.1922 35.399C11.5053 37.6865 14.1851 38.6308 13.6508 41.6886C13.4332 42.9311 12.5946 44.0567 12.6516 45.3403C12.6949 46.2827 15.2417 48.8777 12.5386 48.9305C12.5468 50.7318 7.86774 50.4141 7.40786 52.3953C7.02302 54.0544 8.6946 55.0724 9.24943 56.5177C10.1123 58.7433 9.76091 62.6912 8.12946 64.5219C6.80132 63.4174 7.09725 61.7474 6.43955 60.4774C5.65881 58.9925 5.50947 57.5519 4.61272 56.1446C3.6542 54.6379 2.63697 53.965 2.5938 52.2438C2.5413 50.3033 2.94039 49.4802 4.10121 47.9105C4.82147 46.9353 7.08345 43.3721 4.59192 42.8881C5.35651 40.7623 1.85859 38.7458 2.4249 36.4759C2.99122 34.206 4.4572 32.7351 3.83497 30.3385C3.49462 29.0379 3.49923 28.892 4.2431 27.6824C4.72195 26.9024 5.11675 25.9575 5.21195 24.9952C5.40514 22.9812 4.55917 20.9914 6.37116 19.3529C6.73872 19.0156 7.57884 18.8717 7.88866 18.5651C8.24078 18.203 8.15028 17.47 8.54139 17.1578C8.93251 16.8456 11.6207 15.7215 11.6377 15.6977L11.6136 15.6888Z" fill="#8AC8AD"/>
<path opacity="0.8" d="M12.3564 16.0686C12.4989 17.4685 10.3075 18.2756 9.226 19.3855C7.90972 20.7394 7.74779 22.2757 7.69856 23.8398C7.64932 25.404 7.62161 27.0581 6.78068 28.5162C5.93976 29.9743 5.37667 31.3682 5.48621 33.0428C5.68179 36.1074 9.47205 38.8876 11.4927 41.7013C12.169 42.6393 12.3803 43.66 12.2184 44.6771C12.0972 45.4359 11.4727 47.493 10.3344 48.09C9.88907 48.3193 9.18455 48.0213 8.78028 48.2357C8.30991 48.4887 8.28452 48.7799 8.04815 49.0726C7.40594 49.888 7.17227 50.6108 7.01453 51.4982C6.62326 53.6195 6.79162 54.9714 8.32646 56.983C9.20681 58.1383 9.54155 59.6172 9.7059 60.8393C9.87024 62.0613 8.28507 61.906 7.78236 62.9285C7.15908 62.8846 6.56849 62.8335 5.92977 62.7648C5.7882 61.5921 8.03439 60.592 8.30769 59.3837C8.76808 57.3863 6.09605 55.4201 5.60643 53.4495C5.11681 51.479 7.80121 50.2168 8.27041 48.455C8.65646 47.015 8.45541 45.6701 8.01175 44.3013C7.49367 42.7193 7.54744 41.2689 6.59019 39.7217C6.00359 38.7703 6.30218 38.8202 6.69494 37.9402C7.0008 37.2441 6.74725 36.2788 6.3946 35.6268C5.71309 34.3398 4.89216 33.6163 4.94184 32.2955C4.97144 31.3554 4.8706 30.4355 4.8351 29.5015C4.77649 27.7554 5.78856 26.5298 6.49605 24.9296C7.2907 23.1374 8.17552 21.3156 9.17253 19.5379C9.61922 18.7488 10.2067 18.1264 10.8393 17.3594C11.1684 16.9561 11.8571 15.4364 12.3648 16.0608L12.3564 16.0686Z" fill="#76B098"/>
<path opacity="0.8" d="M23.8174 41.3993C33.7778 41.7128 38.502 40.3363 47.0673 35.7466C54.2047 31.9312 62.2338 32.7762 70.4845 31.7379C78.8902 30.672 88.1841 23.8093 96.3163 27.8214C103.458 31.348 105.818 39.6159 113.482 41.7474C121.902 44.0811 133.318 43.2722 142.03 43.8061C135.417 43.5979 129.694 44.7401 123.535 44.53C118.802 44.3729 112.574 40.9481 109.304 44.5769C100.923 53.8778 121.74 62.1345 127.87 62.9926C136.464 64.1961 134.575 67.2518 139.218 73.0849C136.424 67.5453 134.184 64.7328 127.83 64.2651C122.019 63.8387 119.656 65.1922 114.829 60.7974C111.959 58.184 108.122 54.0557 106.809 50.4043C105.153 45.801 106.965 41.3232 104.306 36.8912C98.6556 27.4732 89.4167 26.144 80.0286 28.266C75.6492 29.2558 71.2021 31.1033 66.5344 31.4594C61.6224 31.8402 56.0822 30.53 51.6162 32.4663C47.3477 34.3114 45.0625 37.5818 40.2915 38.6404C35.5205 39.6989 28.9509 42.2261 23.8257 41.3914L23.8174 41.3993Z" fill="#BDEBD6"/>
<path opacity="0.2" d="M194.143 57.2248C191.164 56.774 190.37 59.053 188.044 59.7586C186.217 60.3176 183.046 59.7716 181.121 59.6136C176.767 59.2576 173.185 57.6115 168.703 57.4542C172.188 59.6326 176.683 59.0927 179.292 62.0385C179.824 61.1223 180.281 61.2746 180.122 60.1582C179.98 60.0401 179.971 60.048 180.105 60.1739C183.179 62.2663 191.713 60.4744 194.135 57.2245L194.143 57.2248Z" fill="#81A395"/>
<path opacity="0.8" d="M170.686 65.0555C171.094 67.2912 166.715 66.2123 165.238 66.4903C163.54 66.8181 161.394 67.7484 160.026 68.9141C159.018 69.7748 157.93 71.3306 157.015 72.3239C155.512 73.9478 154.506 74.4354 152.21 75.2149C150.062 75.9423 146.808 78.0384 144.902 75.9584C147.426 74.902 149.762 74.6349 152.007 72.9127C153.977 71.4009 155.376 71.2826 154.74 68.5693C154.196 66.2482 153.819 64.841 155.088 62.6581C155.535 61.8771 156.567 61.0497 156.772 60.1881C157.07 58.9806 156.264 58.0385 156.505 56.813C157.274 56.8615 158.079 56.7977 158.733 56.6479C158.63 58.3807 157.094 61.05 156.533 62.8739C155.882 65.0033 155.453 66.5392 156.131 68.6942C157.31 68.35 157.961 66.9914 159.055 66.539C160.148 66.0867 161.75 65.9668 162.869 65.7099C165.378 65.1399 168.005 65.4254 170.695 65.0396L170.686 65.0555Z" fill="#74BB9E"/>
<path opacity="0.5" d="M210.961 51.5008C209.211 51.4457 207.806 51.223 206.19 50.7665C204.936 50.4107 203.977 49.9505 202.619 50.2972C203.743 50.941 205.477 51.0037 206.765 51.3039C207.361 51.4443 208.005 51.8621 208.621 51.8977C209.438 51.9478 209.779 51.4312 210.969 51.5011L210.961 51.5008Z" fill="#81A395"/>
<path opacity="0.8" d="M204.775 55.0463C203.4 54.638 202.936 54.7045 202.123 55.7822C201.386 56.765 200.988 56.793 199.675 56.7517C199.984 56.7371 201.169 55.9307 201.238 55.2838C201.332 54.3782 200.309 54.1432 199.558 54.0303C200.19 53.7987 200.776 54.5148 201.467 54.4717C202.003 54.4399 202.637 53.8757 203.231 53.8133C204.688 53.6645 205.506 53.9742 206.041 55.289C205.379 55.187 204.838 54.8212 204.775 55.0382L204.775 55.0463Z" fill="#81A395"/>
<path opacity="0.8" d="M54.7263 72.2514C51.4283 69.8112 48.8965 68.0279 44.9413 69.9721C42.3868 71.2302 40.0629 72.1225 37.1195 71.8189C37.1783 71.7558 37.2528 71.7095 37.3343 71.6958C35.671 71.1892 34.6513 70.0781 32.8168 70.3692C31.2513 70.6201 29.6043 70.8846 28.0618 71.1768C28.7487 69.9735 33.6114 68.8366 35.028 68.6784C36.5423 68.507 37.7012 68.8031 39.1308 68.2316C40.9053 67.5249 40.8801 67.0373 41.7038 65.6111C42.3902 64.4239 42.9564 63.4439 43.5686 62.295C44.5589 63.3078 45.0424 64.4425 46.2725 65.3087C47.5027 66.1749 48.7482 66.5548 50.0114 67.1463C52.7056 68.4074 53.9873 70.9869 56.8318 71.8553C57.8924 72.1807 60.3031 72.9137 61.2524 72.6515C58.6729 72.3838 56.0397 72.5361 54.7346 72.2436L54.7263 72.2514Z" fill="#7AB59D"/>
<path opacity="0.8" d="M24.4183 12.514C26.5574 12.5976 28.0891 13.6761 30.1083 14.2183C31.7091 14.6499 33.4683 14.6891 35.1467 14.7176C38.2679 14.7834 41.4618 13.0586 44.4766 12.3828C42.0854 13.6055 40.5396 15.293 37.8053 15.3042C34.3814 15.3182 32.0628 18.3604 28.9327 19.3489C29.1806 18.6915 29.9921 18.425 30.584 18.1759C31.3696 15.126 26.9619 18.0457 26.0391 18.4953C23.8886 19.5471 22.1933 19.2828 20.0087 18.8409C21.6813 18.0255 22.9342 17.6512 23.5567 15.9185C24.0194 14.6188 23.8631 13.9162 24.4183 12.514Z" fill="#7AB59D"/>
<path opacity="0.2" d="M114.902 80.0844C111.579 79.9798 108.494 80.0612 105.621 80.6117C102.748 81.1621 102.283 79.9306 99.5056 79.0076C97.0004 78.1824 94.9441 78.5638 92.528 77.2303C89.8885 75.7762 88.3124 74.818 85.1861 74.6547C84.326 73.3702 80.5015 74.2558 78.7374 73.5999C83.138 74.2576 86.8912 71.7717 91.3233 73.4931C92.7979 74.0669 93.9518 75.2957 95.3319 76.0368C96.8792 76.8806 98.5203 77.062 100.095 77.8093C100.106 77.4608 100.232 77.051 100.235 76.7023C103.125 75.8846 105.901 77.9028 108.728 78.5515C109.855 78.8142 111.497 79.4824 112.7 79.4148C114.252 79.3339 114.341 78.8337 115.815 78.3852C115.217 78.5611 114.341 79.0933 113.502 79.1886C113.56 79.6609 113.206 79.8201 114.902 80.0682L114.902 80.0844Z" fill="#81A395"/>
<path opacity="0.8" d="M133.726 40.6095C130.062 40.4942 126.32 40.563 122.663 40.2612C120.948 40.118 119.186 39.8922 117.504 39.4823C115.338 38.9517 115.404 38.6536 114.44 37.0738C110.945 31.3418 107.637 25.0965 101.553 22.2603C97.5234 20.3812 92.9887 20.1167 89.3797 17.5045C94.2593 21.2438 100.922 20.3827 106.75 20.558C107.636 22.8088 108.684 25.8596 110.373 27.6245C111.174 28.461 112.158 28.8895 112.899 29.8295C114.031 31.2605 114.279 32.1282 115.946 33.0325C117.98 34.1268 120.216 35.0003 122.254 35.9893C124.491 37.0738 125.803 39.2 128.34 39.5395C129.261 39.6577 129.515 39.3331 130.416 39.5642C131.261 39.7855 132.024 40.2882 133.725 40.6176L133.726 40.6095Z" fill="#74C3A2"/>
<path opacity="0.5" d="M240.704 10.22C240.761 11.0087 240.995 11.5434 241.371 12.2204C241.748 12.8975 241.82 13.7029 242.189 14.3311C242.019 12.7843 240.467 10.5289 241.182 8.95324C241.136 9.38987 240.211 10.1801 240.704 10.22Z" fill="#576D64"/>
<path opacity="0.5" d="M249.643 27.7965C249.127 27.691 248.966 28.1808 248.495 27.9388C248.184 27.7749 247.675 27.1748 247.424 26.9154C246.819 26.2879 246.515 25.3697 246.118 24.6028C246.763 25.2153 247.266 26.0018 247.945 26.583C248.324 26.9113 249.005 27.7115 249.643 27.7965Z" fill="#576D64"/>
<path opacity="0.8" d="M244.62 31.9884C243.271 33.3413 241.515 31.915 240.876 30.5645C240.496 29.7575 240.523 28.9065 240.388 28.0423C240.259 27.2432 239.893 26.4773 239.716 25.6767C239.431 24.4265 239.575 23.1979 238.996 22.0034C238.668 21.3359 238.241 20.7141 237.972 20.0079C237.372 18.4314 236.399 16.8675 235.872 15.3177C235.397 13.9074 233.885 11.9371 235.138 10.7921C234.536 10.5947 233.801 10.7663 233.195 10.9419C234.152 11.9861 235.162 13.6404 235.506 15.079C235.75 16.1008 236.001 16.3683 236.54 17.2938C237.149 18.3189 237.261 19.6367 237.696 20.7618C239.017 24.1782 239.951 27.7446 240.716 31.2652C241.198 33.4789 243.147 33.9459 244.62 31.9803L244.62 31.9884Z" fill="#5AA285"/>
<path opacity="0.8" d="M237.77 10.6322C237.708 11.3036 237.896 11.7962 238.211 12.3578C238.549 12.9525 238.621 13.5064 238.787 14.1525C238.967 14.864 239.344 15.5249 239.566 16.2214C239.765 16.8442 240.006 17.444 240.246 18.0519C240.705 19.1859 240.974 20.4275 241.557 21.5004C242.094 22.4827 242.558 23.4546 242.726 24.5794C242.847 25.3783 243.129 25.9631 243.356 26.7328C243.569 27.4372 243.449 28.1393 243.711 28.8533C243.972 29.5673 244.179 30.4824 244.846 30.9415C245.513 31.4005 245.908 31.4779 246.647 31.4606C246.672 31.1612 246.596 30.7613 246.758 30.5068C246.127 30.7141 245.97 30.5388 245.661 30.0342C245.353 29.5296 245.103 28.9701 244.769 28.4729C244.436 27.9756 244.085 27.5508 243.817 27.0394C243.38 26.2225 243.101 25.2808 242.723 24.4252C241.996 22.7717 241.817 20.9894 240.934 19.3878C240.443 18.4962 240.049 17.348 239.805 16.3425C239.488 15.067 239.084 13.7238 239.094 12.4018C239.097 12.0206 239.365 10.7391 238.993 10.4435C238.669 10.1818 237.706 10.3381 237.77 10.6322Z" fill="#5AA285"/>
</svg>
