<?xml version="1.0" encoding="utf-8"?>
<!-- Generator: Adobe Illustrator 28.3.0, SVG Export Plug-In . SVG Version: 6.00 Build 0)  -->
<svg version="1.1" id="Layer_1" xmlns="http://www.w3.org/2000/svg" xmlns:xlink="http://www.w3.org/1999/xlink" x="0px" y="0px"
	 viewBox="0 0 1856 7637" style="enable-background:new 0 0 1856 7637;" xml:space="preserve">
<style type="text/css">
	.st0{fill:none;stroke:#FF0000;stroke-width:3;}
</style>
<path class="st0" d="M1852.5,9.4L39.9,9.4c-17.1,0-31,13.9-31,31c0.2,149.2,7.4,677.5,7.7,820.3c0.3,171.4,140,266.7,175.8,341.6
	c45.9,96.2-191.8,328.6-172,421.4c2.7,12.5,30.9,84.5,38.7,94.6c79.6,103.2-19.2,332.9,49.4,448.3c42.6,71.7,66.5,86.5,87.1,100.7
	c628.6,434.3,454.9,709.8,846.3,828.8c38.2,11.6,139,86.9,104.6,156.9c-129.1,262.8,19.4,122-19.4,195.6
	c-66.8,127-404.5,270.9-517.1,182c-274.6-216.8-551.4,284.8-387.3,441.5c257.6,245.9,115.6,44.8,857.9,36.8
	c180.1-1.9,428,348.6-255.6,383.4c-438.1,22.3-311.1,411.6,240.4,269.5c60.2-15.5,119.1,29.8,118.9,92
	c-0.9,308.4,265.5,575.8,61.7,739.8c-216.4,174.2-874.1-93.6-1004.9,59.2c-205.6,240.3,605.7,655.3,868.2,640.5
	c51.7-2.9,102.9,11.6,144.6,42.3c75.1,55.5,43,61.2,44.3,143.4c0.5,31.3-60,94.9-42.9,110.2c87.3,78.1,65.8,153.1,13.8,199
	c-134.7,118.8,93.4,362.8-52,391.9c-304.5,60.9-777.7-321.5-924.4-247.9c-7,3.5-13.6,7.3-13.6,7.3c-7.6,4.6-14.8,9.8-21.5,15.5
	c-39.8,34-58.9,86.4-51.8,138.3l19.4,140.6"/>
</svg>
